<svg xmlns="http://www.w3.org/2000/svg" xmlns:xlink="http://www.w3.org/1999/xlink" viewBox="0 0 275.42 305.38"><defs><style>.cls-1,.cls-2,.cls-3,.cls-4,.cls-5{fill:none;stroke-miterlimit:10;stroke-width:10px;}.cls-1{stroke:url(#Orange_Yellow);}.cls-2{stroke:url(#Orange_Yellow-2);}.cls-3{stroke:url(#Orange_Yellow-3);}.cls-4{stroke:url(#Orange_Yellow-4);}.cls-5{stroke:url(#Orange_Yellow-5);}.cls-6{fill:#231f20;}</style><linearGradient id="Orange_Yellow" x1="229.28" y1="213.06" x2="269.9" y2="213.06" gradientUnits="userSpaceOnUse"><stop offset="0" stop-color="#fff33b"/><stop offset="0.04" stop-color="#fee72e"/><stop offset="0.12" stop-color="#fed51b"/><stop offset="0.2" stop-color="#fdca10"/><stop offset="0.28" stop-color="#fdc70c"/><stop offset="0.67" stop-color="#f3903f"/><stop offset="0.89" stop-color="#ed683c"/><stop offset="1" stop-color="#e93e3a"/></linearGradient><linearGradient id="Orange_Yellow-2" x1="346.51" y1="213.38" x2="385.97" y2="213.38" xlink:href="#Orange_Yellow"/><linearGradient id="Orange_Yellow-3" x1="209.13" y1="257.7" x2="402.22" y2="257.7" xlink:href="#Orange_Yellow"/><linearGradient id="Orange_Yellow-4" x1="213.19" y1="175.06" x2="402.91" y2="175.06" xlink:href="#Orange_Yellow"/><linearGradient id="Orange_Yellow-5" x1="26.3" y1="137.94" x2="235.45" y2="137.94" xlink:href="#Orange_Yellow"/></defs><g id="Layer_2" data-name="Layer 2"><path class="cls-1" d="M266,127.78s-58.3,74.95-16.71,171.66" transform="translate(-176.29 -80.51)"/><path class="cls-2" d="M365.16,299.61s43.84-84.28-14.49-172" transform="translate(-176.29 -80.51)"/></g><g id="Layer_3" data-name="Layer 3"><path class="cls-3" d="M211.45,247s82.11,43.09,189.1,5.21" transform="translate(-176.29 -80.51)"/><path class="cls-4" d="M400.55,185.75s-80.62-43.09-185.67-5.22" transform="translate(-176.29 -80.51)"/></g><g id="Layer_1" data-name="Layer 1"><circle class="cls-5" cx="130.88" cy="137.94" r="99.57"/></g><g id="Layer_4" data-name="Layer 4"><image width="512" height="512" transform="translate(8.16 129.4) rotate(-45) scale(0.36)" xlink:href="plane-23.png"/><path class="cls-6" d="M180.16,339a27.91,27.91,0,0,0,10.9,8.14c7,2.9,12.31,1.3,14-3.17,1.53-4.13-.41-7.59-6.25-12.5-7-5.9-10.33-11.85-7.52-17.88,3.11-6.67,11.22-8.81,20.17-5.25a25.55,25.55,0,0,1,9.46,6c-1.32,1.64-2,2.45-3.35,4.08a22.88,22.88,0,0,0-8.18-5.49c-6.4-2.55-10.33-.14-11.62,2.81-1.77,4,.24,7.37,6.15,12.42,7.25,6.18,10.48,11.26,8.23,17.81-2.37,6.89-10.75,10.91-23.46,5.62-5.19-2.16-10.27-5.92-12.36-8.76C177.85,341.27,178.62,340.5,180.16,339Z" transform="translate(-176.29 -80.51)"/><path class="cls-6" d="M229.53,345.7l.16,0c1.26-.88,3-1.92,4.35-2.78,5.59-3.32,8.31-5,13.6-8.62,3.15.73,4.73,1.07,7.9,1.72-6.7,4.32-10.17,6.39-17.36,10.31A260.11,260.11,0,0,0,251,369.7c-3.57-.71-5.35-1.08-8.91-1.89-4.13-7.59-6-11.42-9.56-19.11-1.78,1-2.68,1.45-4.48,2.39l-3.5,12.25c-2.86-.82-4.28-1.24-7.13-2.12l14.72-47.48c2.41.75,3.62,1.11,6,1.8Q233.84,330.61,229.53,345.7Z" transform="translate(-176.29 -80.51)"/><path class="cls-6" d="M265.57,337.92c1.87,8.43,2.91,12.64,5.22,21.05.58,2.34,1.21,5.11,1.6,7.21l.17,0c1-1.92,2.14-4.38,3.41-6.7,4-7.52,6-11.31,9.65-18.95,2.82.28,4.22.39,7,.6-4.69,9.35-7.2,14-12.55,23.12-6.39,11-11,16.41-16.72,19.23a22.44,22.44,0,0,1-10.08,2.38c-.41-2.18-.6-3.27-1-5.45a21.74,21.74,0,0,0,7.14-1.8,19.27,19.27,0,0,0,7.34-5.8,4,4,0,0,0,.8-1.37,4.58,4.58,0,0,0-.28-1.67c-3.31-11-6.26-22-8.95-33.17C261.25,337.18,262.69,337.43,265.57,337.92Z" transform="translate(-176.29 -80.51)"/><path class="cls-6" d="M305.91,328.49c-.22,7.89-.33,11.84-.54,19.73a248,248,0,0,0,25.28-.38c-.46-7.88-.69-11.82-1.14-19.71,2.54-.14,3.82-.23,6.36-.44l3.8,47c-3,.24-4.46.35-7.44.52-.51-8.84-.77-13.25-1.28-22.09a251,251,0,0,1-25.73.39l-.6,22.12c-2.95-.08-4.43-.14-7.37-.29q1.19-23.56,2.36-47.12C302.13,328.37,303.39,328.42,305.91,328.49Z" transform="translate(-176.29 -80.51)"/><path class="cls-6" d="M354.86,329.32c.34,2-1,4-3.58,4.32a3.73,3.73,0,0,1-4.36-3.26,3.86,3.86,0,0,1,3.5-4.32A3.8,3.8,0,0,1,354.86,329.32ZM353,373.37q-2.07-16.81-4.12-33.63c2.65-.33,4-.51,6.63-.89l4.89,33.52C357.45,372.81,356,373,353,373.37Z" transform="translate(-176.29 -80.51)"/><path class="cls-6" d="M397.42,329.52c.56,2.39,1.2,5.05,2.38,9,2.27,7.54,3.4,11.3,5.66,18.84s1.72,12.58-1.4,16.52-8.82,6.58-14.11,7.8c-5,1.16-10.83,1.34-14.54.18.41-2,.62-3,1-5a26.25,26.25,0,0,0,12.69,0c7.7-1.78,12.42-6.54,10.15-14.78l-1-3.64-.16,0c-1.35,3.64-5,7.25-11.23,8.7-10,2.31-18.42-3.53-20-12.77-2-11.31,4.89-19.12,13.12-21.06,6.23-1.46,10.4.55,12.73,2.81l.15,0c-.43-2-.64-3-1.08-5C394,330.53,395.16,330.21,397.42,329.52Zm-3.15,14.83a7.9,7.9,0,0,0-1.12-2.6,10.07,10.07,0,0,0-11-3.9c-6.33,1.51-9.91,7.26-8.37,14.95,1.3,6.52,6.35,11.23,14.11,9.37,4.41-1.06,7.8-4.43,8.28-8.63a9.15,9.15,0,0,0-.32-3.32Z" transform="translate(-176.29 -80.51)"/><path class="cls-6" d="M402.66,311.22c2.42-.83,3.63-1.26,6-2.15L416,328.9l.14,0a13,13,0,0,1,3-5.8,16.27,16.27,0,0,1,5.8-4.22c4.63-1.93,13.14-2.77,18.12,7.81l8.58,18.25c-2.76,1.3-4.15,1.93-6.93,3.16l-7.88-17.8c-2.2-5-6.14-8.23-12.17-5.78a10.18,10.18,0,0,0-6.47,9.13,6.55,6.55,0,0,0,.57,2.92c2.83,7.67,4.24,11.51,7.08,19.18-2.85,1.05-4.27,1.56-7.13,2.54Q410.73,334.72,402.66,311.22Z" transform="translate(-176.29 -80.51)"/></g></svg>